<svg width="223" height="186" viewBox="0 0 223 186" fill="none" xmlns="http://www.w3.org/2000/svg">
<path d="M187.698 45.5157C186.72 45.5157 185.952 45.4109 185.393 45.2014C184.834 45.0268 184.398 44.765 184.084 44.4158C183.804 44.1015 183.63 43.7174 183.56 43.2635C183.49 42.8445 183.455 42.3731 183.455 41.8493V31.6358C183.455 30.3089 183.787 29.2264 184.45 28.3884C185.149 27.5154 186.406 27.079 188.221 27.079H218.705C219.683 27.079 220.451 27.1837 221.009 27.3932C221.568 27.5678 221.987 27.8297 222.267 28.1789C222.581 28.4931 222.773 28.8772 222.843 29.3312C222.913 29.7502 222.947 30.2216 222.947 30.7454V40.9589C222.947 42.7048 222.494 43.892 221.586 44.5205C220.678 45.184 219.543 45.5157 218.181 45.5157H187.698ZM214.462 38.4448V34.1499H191.94V38.4448H214.462ZM192.935 23.884C188.85 23.884 185.847 22.9586 183.927 21.108C182.041 19.2573 181.098 16.2544 181.098 12.0991C181.098 7.90894 182.041 4.88853 183.927 3.03787C185.812 1.1523 188.815 0.209509 192.935 0.209509C197.056 0.209509 200.059 1.1523 201.944 3.03787C203.83 4.88853 204.773 7.90894 204.773 12.0991C204.773 14.2989 204.528 16.1671 204.039 17.7035C203.585 19.2049 202.87 20.4096 201.892 21.3175C200.949 22.2253 199.727 22.8888 198.225 23.3078C196.724 23.6919 194.961 23.884 192.935 23.884ZM192.935 16.9702C194.332 16.9702 195.222 16.6035 195.607 15.8703C196.026 15.1021 196.235 13.845 196.235 12.0991C196.235 10.3532 196.026 9.09616 195.607 8.32796C195.222 7.55976 194.332 7.17566 192.935 7.17566C191.539 7.17566 190.631 7.55976 190.212 8.32796C189.828 9.09616 189.636 10.3532 189.636 12.0991C189.636 13.845 189.828 15.1021 190.212 15.8703C190.631 16.6035 191.539 16.9702 192.935 16.9702ZM218.757 24.8791C218.199 24.8791 217.657 24.8093 217.134 24.6696C216.645 24.5299 216.191 24.2855 215.772 23.9363C215.388 23.5872 215.073 23.1158 214.829 22.5222C214.619 21.9285 214.515 21.1778 214.515 20.2699V15.8179H211.11C210.133 15.8179 209.347 15.7306 208.753 15.556C208.16 15.3465 207.688 15.0671 207.339 14.718C207.025 14.3688 206.815 13.9847 206.711 13.5657C206.606 13.1117 206.553 12.6229 206.553 12.0991C206.553 11.6801 206.606 11.2611 206.711 10.8421C206.815 10.3881 207.025 9.98657 207.339 9.63739C207.688 9.28821 208.16 9.00886 208.753 8.79935C209.347 8.58984 210.133 8.48509 211.11 8.48509H214.515V4.55681C214.515 2.8109 214.934 1.62369 215.772 0.995164C216.645 0.331721 217.64 0 218.757 0C219.316 0 219.84 0.0698365 220.329 0.209509C220.852 0.349182 221.306 0.593607 221.69 0.942788C222.074 1.29197 222.389 1.76336 222.633 2.35697C222.878 2.95058 223 3.68386 223 4.55681V20.2699C223 21.1778 222.878 21.9285 222.633 22.5222C222.389 23.1158 222.074 23.5872 221.69 23.9363C221.306 24.2855 220.852 24.5299 220.329 24.6696C219.84 24.8093 219.316 24.8791 218.757 24.8791Z" fill="#384B60"/>
<path d="M135.625 44.9395C135.066 44.9395 134.525 44.8697 134.001 44.73C133.512 44.5904 133.058 44.3459 132.639 43.9968C132.255 43.6476 131.941 43.1762 131.696 42.5826C131.487 41.989 131.382 41.2382 131.382 40.3304V31.0596H125.254C124.276 31.0596 123.473 30.9549 122.845 30.7454C122.216 30.5358 121.727 30.274 121.378 29.9597C121.029 29.6105 120.785 29.2264 120.645 28.8074C120.54 28.3535 120.488 27.917 120.488 27.498C120.488 26.9742 120.54 26.5028 120.645 26.0838C120.785 25.6299 121.029 25.2458 121.378 24.9315C121.727 24.5823 122.216 24.3204 122.845 24.1458C123.473 23.9363 124.276 23.8316 125.254 23.8316H146.362C147.34 23.8316 148.143 23.9363 148.771 24.1458C149.4 24.3204 149.889 24.5823 150.238 24.9315C150.587 25.2458 150.814 25.6299 150.919 26.0838C151.059 26.5028 151.128 26.9742 151.128 27.498C151.128 27.917 151.059 28.3535 150.919 28.8074C150.814 29.2264 150.587 29.6105 150.238 29.9597C149.889 30.274 149.4 30.5358 148.771 30.7454C148.143 30.9549 147.34 31.0596 146.362 31.0596H139.867V40.3304C139.867 41.2382 139.745 41.989 139.501 42.5826C139.256 43.1762 138.942 43.6476 138.558 43.9968C138.174 44.3459 137.72 44.5904 137.196 44.73C136.707 44.8697 136.183 44.9395 135.625 44.9395ZM124.207 20.5318C123.613 20.4969 123.037 20.3398 122.478 20.0604C121.919 19.7462 121.483 19.2224 121.169 18.4891C120.645 17.267 120.593 16.202 121.012 15.2941C121.465 14.3862 122.304 13.6355 123.526 13.0419C125.027 12.3086 126.249 11.6452 127.192 11.0516C128.17 10.458 128.921 9.86435 129.444 9.27074C130.003 8.67714 130.37 8.06607 130.544 7.43755C130.754 6.7741 130.858 6.02337 130.858 5.18533V4.29492C130.858 3.42197 130.981 2.72361 131.225 2.19984C131.47 1.67607 131.784 1.27451 132.168 0.995164C132.587 0.680902 133.058 0.488853 133.582 0.419018C134.106 0.314263 134.647 0.261885 135.206 0.261885C135.764 0.261885 136.306 0.314263 136.829 0.419018C137.353 0.488853 137.807 0.680902 138.191 0.995164C138.61 1.27451 138.942 1.67607 139.186 2.19984C139.431 2.72361 139.553 3.42197 139.553 4.29492V5.08058C139.553 5.81386 139.658 6.49476 139.867 7.12329C140.077 7.71689 140.461 8.3105 141.02 8.90411C141.578 9.49771 142.329 10.1262 143.272 10.7897C144.215 11.4531 145.402 12.1689 146.833 12.9371C148.056 13.5657 148.876 14.3164 149.295 15.1894C149.749 16.0623 149.714 17.1098 149.19 18.332C148.562 19.5541 147.584 20.2525 146.257 20.4271C145.419 20.4969 144.599 20.3747 143.796 20.0604C143.097 19.7811 142.381 19.4319 141.648 19.0129C140.915 18.559 140.182 18.0876 139.448 17.5987C138.715 17.0749 138.017 16.5337 137.353 15.975C136.725 15.3814 136.149 14.7878 135.625 14.1942C134.368 15.7306 133.023 16.9353 131.592 17.8082C130.195 18.6462 128.763 19.3621 127.297 19.9557C126.808 20.1303 126.302 20.2874 125.778 20.4271C125.289 20.5667 124.765 20.6017 124.207 20.5318ZM159.037 44.9395C158.479 44.9395 157.937 44.8697 157.414 44.73C156.925 44.5904 156.471 44.3459 156.052 43.9968C155.668 43.6476 155.353 43.1762 155.109 42.5826C154.9 41.989 154.795 41.2382 154.795 40.3304V4.55681C154.795 2.8109 155.214 1.62369 156.052 0.995164C156.925 0.331721 157.92 0 159.037 0C159.596 0 160.12 0.0698365 160.609 0.209509C161.132 0.349182 161.586 0.593607 161.97 0.942788C162.355 1.29197 162.669 1.76336 162.913 2.35697C163.158 2.95058 163.28 3.68386 163.28 4.55681V40.3304C163.28 41.2382 163.158 41.989 162.913 42.5826C162.669 43.1762 162.355 43.6476 161.97 43.9968C161.586 44.3459 161.132 44.5904 160.609 44.73C160.12 44.8697 159.596 44.9395 159.037 44.9395Z" fill="#384B60"/>
<path d="M67.2099 45.5157C66.2322 45.5157 65.464 45.4109 64.9053 45.2014C64.3466 45.0268 63.9101 44.765 63.5958 44.4158C63.3165 44.1015 63.1419 43.7174 63.0721 43.2635C63.0022 42.8445 62.9673 42.3731 62.9673 41.8493V31.6358C62.9673 30.3089 63.299 29.2264 63.9625 28.3884C64.6608 27.5154 65.9179 27.079 67.7336 27.079H98.2171C99.1948 27.079 99.963 27.1837 100.522 27.3932C101.08 27.5678 101.499 27.8297 101.779 28.1789C102.093 28.4931 102.285 28.8772 102.355 29.3312C102.425 29.7502 102.46 30.2216 102.46 30.7454V40.9589C102.46 42.7048 102.006 43.892 101.098 44.5205C100.19 45.184 99.0551 45.5157 97.6933 45.5157H67.2099ZM93.9746 38.4448V34.1499H71.4524V38.4448H93.9746ZM72.4476 23.884C68.3622 23.884 65.3592 22.9586 63.4387 21.108C61.5531 19.2573 60.6104 16.2544 60.6104 12.0991C60.6104 7.90894 61.5531 4.88853 63.4387 3.03787C65.3243 1.1523 68.3272 0.209509 72.4476 0.209509C76.5679 0.209509 79.5709 1.1523 81.4564 3.03787C83.342 4.88853 84.2848 7.90894 84.2848 12.0991C84.2848 14.2989 84.0404 16.1671 83.5515 17.7035C83.0976 19.2049 82.3818 20.4096 81.4041 21.3175C80.4613 22.2253 79.2391 22.8888 77.7377 23.3078C76.2362 23.6919 74.4728 23.884 72.4476 23.884ZM72.4476 16.9702C73.8443 16.9702 74.7347 16.6035 75.1188 15.8703C75.5378 15.1021 75.7473 13.845 75.7473 12.0991C75.7473 10.3532 75.5378 9.09616 75.1188 8.32796C74.7347 7.55976 73.8443 7.17566 72.4476 7.17566C71.0508 7.17566 70.143 7.55976 69.724 8.32796C69.3399 9.09616 69.1478 10.3532 69.1478 12.0991C69.1478 13.845 69.3399 15.1021 69.724 15.8703C70.143 16.6035 71.0508 16.9702 72.4476 16.9702ZM98.2695 24.8791C97.7108 24.8791 97.1696 24.8093 96.6458 24.6696C96.1569 24.5299 95.703 24.2855 95.284 23.9363C94.8999 23.5872 94.5856 23.1158 94.3412 22.5222C94.1317 21.9285 94.0269 21.1778 94.0269 20.2699V15.8179H90.6224C89.6447 15.8179 88.8591 15.7306 88.2655 15.556C87.6718 15.3465 87.2005 15.0671 86.8513 14.718C86.537 14.3688 86.3275 13.9847 86.2227 13.5657C86.118 13.1117 86.0656 12.6229 86.0656 12.0991C86.0656 11.6801 86.118 11.2611 86.2227 10.8421C86.3275 10.3881 86.537 9.98657 86.8513 9.63739C87.2005 9.28821 87.6718 9.00886 88.2655 8.79935C88.8591 8.58984 89.6447 8.48509 90.6224 8.48509H94.0269V4.55681C94.0269 2.8109 94.446 1.62369 95.284 0.995164C96.1569 0.331721 97.1521 0 98.2695 0C98.8282 0 99.3519 0.0698365 99.8408 0.209509C100.365 0.349182 100.819 0.593607 101.203 0.942788C101.587 1.29197 101.901 1.76336 102.145 2.35697C102.39 2.95058 102.512 3.68386 102.512 4.55681V20.2699C102.512 21.1778 102.39 21.9285 102.145 22.5222C101.901 23.1158 101.587 23.5872 101.203 23.9363C100.819 24.2855 100.365 24.5299 99.8408 24.6696C99.3519 24.8093 98.8282 24.8791 98.2695 24.8791Z" fill="#384B60"/>
<path d="M15.137 44.9395C14.5783 44.9395 14.0371 44.8697 13.5133 44.73C13.0244 44.5904 12.5705 44.3459 12.1515 43.9968C11.7674 43.6476 11.4531 43.1762 11.2087 42.5826C10.9992 41.989 10.8944 41.2382 10.8944 40.3304V31.0596H4.76632C3.78861 31.0596 2.98549 30.9549 2.35697 30.7454C1.72844 30.5358 1.23959 30.274 0.890411 29.9597C0.54123 29.6105 0.296804 29.2264 0.157131 28.8074C0.0523772 28.3535 0 27.917 0 27.498C0 26.9742 0.0523772 26.5028 0.157131 26.0838C0.296804 25.6299 0.54123 25.2458 0.890411 24.9315C1.23959 24.5823 1.72844 24.3204 2.35697 24.1458C2.98549 23.9363 3.78861 23.8316 4.76632 23.8316H25.8743C26.852 23.8316 27.6551 23.9363 28.2836 24.1458C28.9122 24.3204 29.401 24.5823 29.7502 24.9315C30.0994 25.2458 30.3263 25.6299 30.4311 26.0838C30.5708 26.5028 30.6406 26.9742 30.6406 27.498C30.6406 27.917 30.5708 28.3535 30.4311 28.8074C30.3263 29.2264 30.0994 29.6105 29.7502 29.9597C29.401 30.274 28.9122 30.5358 28.2836 30.7454C27.6551 30.9549 26.852 31.0596 25.8743 31.0596H19.3795V40.3304C19.3795 41.2382 19.2573 41.989 19.0129 42.5826C18.7685 43.1762 18.4542 43.6476 18.0701 43.9968C17.686 44.3459 17.2321 44.5904 16.7083 44.73C16.2194 44.8697 15.6957 44.9395 15.137 44.9395ZM3.71877 20.5318C3.12517 20.4969 2.54902 20.3398 1.99033 20.0604C1.43164 19.7462 0.995165 19.2224 0.680902 18.4891C0.157131 17.267 0.104754 16.202 0.523771 15.2941C0.977706 14.3862 1.81574 13.6355 3.03787 13.0419C4.53935 12.3086 5.76148 11.6452 6.70427 11.0516C7.68197 10.458 8.43271 9.86435 8.95648 9.27074C9.51517 8.67714 9.88181 8.06607 10.0564 7.43755C10.2659 6.7741 10.3707 6.02337 10.3707 5.18533V4.29492C10.3707 3.42197 10.4929 2.72361 10.7373 2.19984C10.9817 1.67607 11.296 1.27451 11.6801 0.995164C12.0991 0.680902 12.5705 0.488853 13.0943 0.419018C13.618 0.314263 14.1593 0.261885 14.718 0.261885C15.2767 0.261885 15.8179 0.314263 16.3417 0.419018C16.8654 0.488853 17.3194 0.680902 17.7035 0.995164C18.1225 1.27451 18.4542 1.67607 18.6986 2.19984C18.9431 2.72361 19.0653 3.42197 19.0653 4.29492V5.08058C19.0653 5.81386 19.17 6.49476 19.3795 7.12329C19.589 7.71689 19.9731 8.3105 20.5318 8.90411C21.0905 9.49771 21.8413 10.1262 22.784 10.7897C23.7268 11.4531 24.914 12.1689 26.3457 12.9371C27.5678 13.5657 28.3884 14.3164 28.8074 15.1894C29.2613 16.0623 29.2264 17.1098 28.7027 18.332C28.0741 19.5541 27.0964 20.2525 25.7695 20.4271C24.9315 20.4969 24.1109 20.3747 23.3078 20.0604C22.6094 19.7811 21.8936 19.4319 21.1603 19.0129C20.4271 18.559 19.6938 18.0876 18.9605 17.5987C18.2272 17.0749 17.5289 16.5337 16.8654 15.975C16.2369 15.3814 15.6608 14.7878 15.137 14.1942C13.8799 15.7306 12.5356 16.9353 11.1039 17.8082C9.70722 18.6462 8.27558 19.3621 6.80902 19.9557C6.32017 20.1303 5.81386 20.2874 5.29009 20.4271C4.80123 20.5667 4.27746 20.6017 3.71877 20.5318ZM38.5495 44.9395C37.9909 44.9395 37.4496 44.8697 36.9259 44.73C36.437 44.5904 35.9831 44.3459 35.5641 43.9968C35.18 43.6476 34.8657 43.1762 34.6213 42.5826C34.4118 41.989 34.307 41.2382 34.307 40.3304V4.55681C34.307 2.8109 34.726 1.62369 35.5641 0.995164C36.437 0.331721 37.4322 0 38.5495 0C39.1082 0 39.632 0.0698365 40.1209 0.209509C40.6446 0.349182 41.0986 0.593607 41.4827 0.942788C41.8668 1.29197 42.181 1.76336 42.4254 2.35697C42.6699 2.95058 42.7921 3.68386 42.7921 4.55681V40.3304C42.7921 41.2382 42.6699 41.989 42.4254 42.5826C42.181 43.1762 41.8668 43.6476 41.4827 43.9968C41.0986 44.3459 40.6446 44.5904 40.1209 44.73C39.632 44.8697 39.1082 44.9395 38.5495 44.9395Z" fill="#384B60"/>
<path fill-rule="evenodd" clip-rule="evenodd" d="M147.999 133.862C147.999 133.802 147.973 133.743 147.975 133.683C147.992 133.231 148 132.777 148 132.322C148 111.994 131.435 95.5156 111 95.5156C90.5655 95.5156 74 111.994 74 132.322C74 152.649 90.5655 169.127 111 169.127C112.504 169.127 113.868 170.145 113.979 171.645C114.419 177.58 112.511 182.941 111.18 185.425C111.118 185.541 111.221 185.678 111.347 185.636C123.744 181.509 147.822 165.621 147.999 133.862Z" fill="#384B60"/>
<ellipse cx="93.9233" cy="127.298" rx="2.84615" ry="4.26923" fill="#FCF0D9"/>
<ellipse cx="111" cy="127.298" rx="2.84615" ry="4.26923" fill="#FCF0D9"/>
</svg>
