<svg width="375" height="40" viewBox="0 0 375 40" fill="none" xmlns="http://www.w3.org/2000/svg">
<path d="M88.3789 26.8811C88.0886 26.8811 87.8604 26.8499 87.6945 26.7877C87.5286 26.7359 87.3989 26.6581 87.3056 26.5544C87.2226 26.4611 87.1708 26.347 87.1501 26.2122C87.1293 26.0877 87.1189 25.9477 87.1189 25.7922V22.7588C87.1189 22.3648 87.2175 22.0433 87.4145 21.7944C87.6219 21.5351 87.9952 21.4055 88.5345 21.4055H97.5878C97.8782 21.4055 98.1064 21.4366 98.2723 21.4988C98.4382 21.5507 98.5626 21.6285 98.6456 21.7322C98.7389 21.8255 98.796 21.9396 98.8167 22.0744C98.8375 22.1988 98.8478 22.3388 98.8478 22.4944V25.5277C98.8478 26.0462 98.713 26.3988 98.4434 26.5855C98.1738 26.7825 97.8367 26.8811 97.4323 26.8811H88.3789ZM96.3278 24.7811V23.5055H89.6389V24.7811H96.3278ZM89.9345 20.4566C88.7212 20.4566 87.8293 20.1818 87.2589 19.6322C86.6989 19.0825 86.4189 18.1907 86.4189 16.9566C86.4189 15.7122 86.6989 14.8151 87.2589 14.2655C87.8189 13.7055 88.7108 13.4255 89.9345 13.4255C91.1582 13.4255 92.0501 13.7055 92.6101 14.2655C93.1701 14.8151 93.4501 15.7122 93.4501 16.9566C93.4501 17.6099 93.3775 18.1648 93.2323 18.6211C93.0975 19.067 92.8849 19.4248 92.5945 19.6944C92.3145 19.964 91.9515 20.1611 91.5056 20.2855C91.0597 20.3996 90.536 20.4566 89.9345 20.4566ZM89.9345 18.4033C90.3493 18.4033 90.6138 18.2944 90.7278 18.0766C90.8523 17.8485 90.9145 17.4751 90.9145 16.9566C90.9145 16.4381 90.8523 16.0648 90.7278 15.8366C90.6138 15.6085 90.3493 15.4944 89.9345 15.4944C89.5197 15.4944 89.2501 15.6085 89.1256 15.8366C89.0115 16.0648 88.9545 16.4381 88.9545 16.9566C88.9545 17.4751 89.0115 17.8485 89.1256 18.0766C89.2501 18.2944 89.5197 18.4033 89.9345 18.4033ZM97.6034 20.7522C97.4375 20.7522 97.2767 20.7314 97.1212 20.6899C96.976 20.6485 96.8412 20.5759 96.7167 20.4722C96.6026 20.3685 96.5093 20.2285 96.4367 20.0522C96.3745 19.8759 96.3434 19.6529 96.3434 19.3833V18.0611H95.3323C95.0419 18.0611 94.8086 18.0351 94.6323 17.9833C94.456 17.9211 94.316 17.8381 94.2123 17.7344C94.1189 17.6307 94.0567 17.5166 94.0256 17.3922C93.9945 17.2574 93.9789 17.1122 93.9789 16.9566C93.9789 16.8322 93.9945 16.7077 94.0256 16.5833C94.0567 16.4485 94.1189 16.3292 94.2123 16.2255C94.316 16.1218 94.456 16.0388 94.6323 15.9766C94.8086 15.9144 95.0419 15.8833 95.3323 15.8833H96.3434V14.7166C96.3434 14.1981 96.4678 13.8455 96.7167 13.6588C96.976 13.4618 97.2715 13.3633 97.6034 13.3633C97.7693 13.3633 97.9249 13.384 98.0701 13.4255C98.2256 13.467 98.3604 13.5396 98.4745 13.6433C98.5886 13.747 98.6819 13.887 98.7545 14.0633C98.8271 14.2396 98.8634 14.4574 98.8634 14.7166V19.3833C98.8634 19.6529 98.8271 19.8759 98.7545 20.0522C98.6819 20.2285 98.5886 20.3685 98.4745 20.4722C98.3604 20.5759 98.2256 20.6485 98.0701 20.6899C97.9249 20.7314 97.7693 20.7522 97.6034 20.7522Z" fill="#384B60"/>
<path d="M72.9135 26.7099C72.7476 26.7099 72.5869 26.6892 72.4313 26.6477C72.2861 26.6062 72.1513 26.5337 72.0269 26.4299C71.9128 26.3262 71.8194 26.1862 71.7469 26.0099C71.6846 25.8337 71.6535 25.6107 71.6535 25.3411V22.5877H69.8335C69.5432 22.5877 69.3046 22.5566 69.118 22.4944C68.9313 22.4322 68.7861 22.3544 68.6824 22.2611C68.5787 22.1574 68.5061 22.0433 68.4646 21.9188C68.4335 21.784 68.418 21.6544 68.418 21.5299C68.418 21.3744 68.4335 21.2344 68.4646 21.1099C68.5061 20.9751 68.5787 20.8611 68.6824 20.7677C68.7861 20.664 68.9313 20.5862 69.118 20.5344C69.3046 20.4722 69.5432 20.4411 69.8335 20.4411H76.1024C76.3928 20.4411 76.6313 20.4722 76.818 20.5344C77.0046 20.5862 77.1498 20.664 77.2535 20.7677C77.3572 20.8611 77.4246 20.9751 77.4557 21.1099C77.4972 21.2344 77.518 21.3744 77.518 21.5299C77.518 21.6544 77.4972 21.784 77.4557 21.9188C77.4246 22.0433 77.3572 22.1574 77.2535 22.2611C77.1498 22.3544 77.0046 22.4322 76.818 22.4944C76.6313 22.5566 76.3928 22.5877 76.1024 22.5877H74.1735V25.3411C74.1735 25.6107 74.1372 25.8337 74.0646 26.0099C73.992 26.1862 73.8987 26.3262 73.7846 26.4299C73.6706 26.5337 73.5357 26.6062 73.3802 26.6477C73.235 26.6892 73.0794 26.7099 72.9135 26.7099ZM69.5224 19.4611C69.3461 19.4507 69.175 19.404 69.0091 19.3211C68.8432 19.2277 68.7135 19.0722 68.6202 18.8544C68.4646 18.4914 68.4491 18.1751 68.5735 17.9055C68.7083 17.6359 68.9572 17.4129 69.3202 17.2366C69.7661 17.0188 70.1291 16.8218 70.4091 16.6455C70.6994 16.4692 70.9224 16.2929 71.078 16.1166C71.2439 15.9403 71.3528 15.7588 71.4046 15.5722C71.4669 15.3751 71.498 15.1522 71.498 14.9033V14.6388C71.498 14.3796 71.5343 14.1722 71.6069 14.0166C71.6795 13.8611 71.7728 13.7418 71.8869 13.6588C72.0113 13.5655 72.1513 13.5085 72.3069 13.4877C72.4624 13.4566 72.6232 13.4411 72.7891 13.4411C72.955 13.4411 73.1157 13.4566 73.2713 13.4877C73.4269 13.5085 73.5617 13.5655 73.6757 13.6588C73.8002 13.7418 73.8987 13.8611 73.9713 14.0166C74.0439 14.1722 74.0802 14.3796 74.0802 14.6388V14.8722C74.0802 15.0899 74.1113 15.2922 74.1735 15.4788C74.2357 15.6551 74.3498 15.8314 74.5157 16.0077C74.6817 16.184 74.9046 16.3707 75.1846 16.5677C75.4646 16.7648 75.8172 16.9774 76.2424 17.2055C76.6054 17.3922 76.8491 17.6151 76.9735 17.8744C77.1083 18.1337 77.098 18.4448 76.9424 18.8077C76.7557 19.1707 76.4654 19.3781 76.0713 19.4299C75.8224 19.4507 75.5787 19.4144 75.3402 19.3211C75.1328 19.2381 74.9202 19.1344 74.7024 19.0099C74.4846 18.8751 74.2669 18.7351 74.0491 18.5899C73.8313 18.4344 73.6239 18.2737 73.4269 18.1077C73.2402 17.9314 73.0691 17.7551 72.9135 17.5788C72.5402 18.0351 72.1409 18.3929 71.7157 18.6522C71.3009 18.9011 70.8757 19.1137 70.4402 19.2899C70.295 19.3418 70.1446 19.3885 69.9891 19.4299C69.8439 19.4714 69.6883 19.4818 69.5224 19.4611ZM79.8669 26.7099C79.7009 26.7099 79.5402 26.6892 79.3846 26.6477C79.2395 26.6062 79.1046 26.5337 78.9802 26.4299C78.8661 26.3262 78.7728 26.1862 78.7002 26.0099C78.638 25.8337 78.6069 25.6107 78.6069 25.3411V14.7166C78.6069 14.1981 78.7313 13.8455 78.9802 13.6588C79.2395 13.4618 79.535 13.3633 79.8669 13.3633C80.0328 13.3633 80.1883 13.384 80.3335 13.4255C80.4891 13.467 80.6239 13.5396 80.738 13.6433C80.852 13.747 80.9454 13.887 81.018 14.0633C81.0906 14.2396 81.1269 14.4574 81.1269 14.7166V25.3411C81.1269 25.6107 81.0906 25.8337 81.018 26.0099C80.9454 26.1862 80.852 26.3262 80.738 26.4299C80.6239 26.5337 80.4891 26.6062 80.3335 26.6477C80.1883 26.6892 80.0328 26.7099 79.8669 26.7099Z" fill="#384B60"/>
<path d="M52.5948 26.8811C52.3044 26.8811 52.0762 26.8499 51.9103 26.7877C51.7444 26.7359 51.6148 26.6581 51.5214 26.5544C51.4385 26.4611 51.3866 26.347 51.3659 26.2122C51.3451 26.0877 51.3348 25.9477 51.3348 25.7922V22.7588C51.3348 22.3648 51.4333 22.0433 51.6303 21.7944C51.8377 21.5351 52.2111 21.4055 52.7503 21.4055H61.8037C62.094 21.4055 62.3222 21.4366 62.4881 21.4988C62.654 21.5507 62.7785 21.6285 62.8614 21.7322C62.9548 21.8255 63.0118 21.9396 63.0325 22.0744C63.0533 22.1988 63.0637 22.3388 63.0637 22.4944V25.5277C63.0637 26.0462 62.9288 26.3988 62.6592 26.5855C62.3896 26.7825 62.0525 26.8811 61.6481 26.8811H52.5948ZM60.5437 24.7811V23.5055H53.8548V24.7811H60.5437ZM54.1503 20.4566C52.937 20.4566 52.0451 20.1818 51.4748 19.6322C50.9148 19.0825 50.6348 18.1907 50.6348 16.9566C50.6348 15.7122 50.9148 14.8151 51.4748 14.2655C52.0348 13.7055 52.9266 13.4255 54.1503 13.4255C55.374 13.4255 56.2659 13.7055 56.8259 14.2655C57.3859 14.8151 57.6659 15.7122 57.6659 16.9566C57.6659 17.6099 57.5933 18.1648 57.4481 18.6211C57.3133 19.067 57.1007 19.4248 56.8103 19.6944C56.5303 19.964 56.1674 20.1611 55.7214 20.2855C55.2755 20.3996 54.7518 20.4566 54.1503 20.4566ZM54.1503 18.4033C54.5651 18.4033 54.8296 18.2944 54.9437 18.0766C55.0681 17.8485 55.1303 17.4751 55.1303 16.9566C55.1303 16.4381 55.0681 16.0648 54.9437 15.8366C54.8296 15.6085 54.5651 15.4944 54.1503 15.4944C53.7355 15.4944 53.4659 15.6085 53.3414 15.8366C53.2274 16.0648 53.1703 16.4381 53.1703 16.9566C53.1703 17.4751 53.2274 17.8485 53.3414 18.0766C53.4659 18.2944 53.7355 18.4033 54.1503 18.4033ZM61.8192 20.7522C61.6533 20.7522 61.4925 20.7314 61.337 20.6899C61.1918 20.6485 61.057 20.5759 60.9325 20.4722C60.8185 20.3685 60.7251 20.2285 60.6525 20.0522C60.5903 19.8759 60.5592 19.6529 60.5592 19.3833V18.0611H59.5481C59.2577 18.0611 59.0244 18.0351 58.8481 17.9833C58.6718 17.9211 58.5318 17.8381 58.4281 17.7344C58.3348 17.6307 58.2725 17.5166 58.2414 17.3922C58.2103 17.2574 58.1948 17.1122 58.1948 16.9566C58.1948 16.8322 58.2103 16.7077 58.2414 16.5833C58.2725 16.4485 58.3348 16.3292 58.4281 16.2255C58.5318 16.1218 58.6718 16.0388 58.8481 15.9766C59.0244 15.9144 59.2577 15.8833 59.5481 15.8833H60.5592V14.7166C60.5592 14.1981 60.6837 13.8455 60.9325 13.6588C61.1918 13.4618 61.4874 13.3633 61.8192 13.3633C61.9851 13.3633 62.1407 13.384 62.2859 13.4255C62.4414 13.467 62.5762 13.5396 62.6903 13.6433C62.8044 13.747 62.8977 13.887 62.9703 14.0633C63.0429 14.2396 63.0792 14.4574 63.0792 14.7166V19.3833C63.0792 19.6529 63.0429 19.8759 62.9703 20.0522C62.8977 20.2285 62.8044 20.3685 62.6903 20.4722C62.5762 20.5759 62.4414 20.6485 62.2859 20.6899C62.1407 20.7314 61.9851 20.7522 61.8192 20.7522Z" fill="#384B60"/>
<path d="M37.1298 26.7099C36.9639 26.7099 36.8032 26.6892 36.6476 26.6477C36.5024 26.6062 36.3676 26.5337 36.2432 26.4299C36.1291 26.3262 36.0358 26.1862 35.9632 26.0099C35.9009 25.8337 35.8698 25.6107 35.8698 25.3411V22.5877H34.0498C33.7595 22.5877 33.5209 22.5566 33.3343 22.4944C33.1476 22.4322 33.0024 22.3544 32.8987 22.2611C32.795 22.1574 32.7224 22.0433 32.6809 21.9188C32.6498 21.784 32.6343 21.6544 32.6343 21.5299C32.6343 21.3744 32.6498 21.2344 32.6809 21.1099C32.7224 20.9751 32.795 20.8611 32.8987 20.7677C33.0024 20.664 33.1476 20.5862 33.3343 20.5344C33.5209 20.4722 33.7595 20.4411 34.0498 20.4411H40.3187C40.6091 20.4411 40.8476 20.4722 41.0343 20.5344C41.2209 20.5862 41.3661 20.664 41.4698 20.7677C41.5735 20.8611 41.6409 20.9751 41.6721 21.1099C41.7135 21.2344 41.7343 21.3744 41.7343 21.5299C41.7343 21.6544 41.7135 21.784 41.6721 21.9188C41.6409 22.0433 41.5735 22.1574 41.4698 22.2611C41.3661 22.3544 41.2209 22.4322 41.0343 22.4944C40.8476 22.5566 40.6091 22.5877 40.3187 22.5877H38.3898V25.3411C38.3898 25.6107 38.3535 25.8337 38.2809 26.0099C38.2084 26.1862 38.115 26.3262 38.0009 26.4299C37.8869 26.5337 37.7521 26.6062 37.5965 26.6477C37.4513 26.6892 37.2958 26.7099 37.1298 26.7099ZM33.7387 19.4611C33.5624 19.4507 33.3913 19.404 33.2254 19.3211C33.0595 19.2277 32.9298 19.0722 32.8365 18.8544C32.6809 18.4914 32.6654 18.1751 32.7898 17.9055C32.9246 17.6359 33.1735 17.4129 33.5365 17.2366C33.9824 17.0188 34.3454 16.8218 34.6254 16.6455C34.9158 16.4692 35.1387 16.2929 35.2943 16.1166C35.4602 15.9403 35.5691 15.7588 35.6209 15.5722C35.6832 15.3751 35.7143 15.1522 35.7143 14.9033V14.6388C35.7143 14.3796 35.7506 14.1722 35.8232 14.0166C35.8958 13.8611 35.9891 13.7418 36.1032 13.6588C36.2276 13.5655 36.3676 13.5085 36.5232 13.4877C36.6787 13.4566 36.8395 13.4411 37.0054 13.4411C37.1713 13.4411 37.3321 13.4566 37.4876 13.4877C37.6432 13.5085 37.778 13.5655 37.8921 13.6588C38.0165 13.7418 38.115 13.8611 38.1876 14.0166C38.2602 14.1722 38.2965 14.3796 38.2965 14.6388V14.8722C38.2965 15.0899 38.3276 15.2922 38.3898 15.4788C38.4521 15.6551 38.5661 15.8314 38.7321 16.0077C38.898 16.184 39.1209 16.3707 39.4009 16.5677C39.6809 16.7648 40.0335 16.9774 40.4587 17.2055C40.8217 17.3922 41.0654 17.6151 41.1898 17.8744C41.3246 18.1337 41.3143 18.4448 41.1587 18.8077C40.9721 19.1707 40.6817 19.3781 40.2876 19.4299C40.0387 19.4507 39.795 19.4144 39.5565 19.3211C39.3491 19.2381 39.1365 19.1344 38.9187 19.0099C38.7009 18.8751 38.4832 18.7351 38.2654 18.5899C38.0476 18.4344 37.8402 18.2737 37.6432 18.1077C37.4565 17.9314 37.2854 17.7551 37.1298 17.5788C36.7565 18.0351 36.3572 18.3929 35.9321 18.6522C35.5172 18.9011 35.0921 19.1137 34.6565 19.2899C34.5113 19.3418 34.3609 19.3885 34.2054 19.4299C34.0602 19.4714 33.9046 19.4818 33.7387 19.4611ZM44.0832 26.7099C43.9172 26.7099 43.7565 26.6892 43.6009 26.6477C43.4558 26.6062 43.3209 26.5337 43.1965 26.4299C43.0824 26.3262 42.9891 26.1862 42.9165 26.0099C42.8543 25.8337 42.8232 25.6107 42.8232 25.3411V14.7166C42.8232 14.1981 42.9476 13.8455 43.1965 13.6588C43.4558 13.4618 43.7513 13.3633 44.0832 13.3633C44.2491 13.3633 44.4046 13.384 44.5498 13.4255C44.7054 13.467 44.8402 13.5396 44.9543 13.6433C45.0684 13.747 45.1617 13.887 45.2343 14.0633C45.3069 14.2396 45.3432 14.4574 45.3432 14.7166V25.3411C45.3432 25.6107 45.3069 25.8337 45.2343 26.0099C45.1617 26.1862 45.0684 26.3262 44.9543 26.4299C44.8402 26.5337 44.7054 26.6062 44.5498 26.6477C44.4046 26.6892 44.2491 26.7099 44.0832 26.7099Z" fill="#384B60"/>
<path fill-rule="evenodd" clip-rule="evenodd" d="M27.0689 19.2545C27.0689 19.2455 27.065 19.2367 27.0653 19.2277C27.0678 19.1601 27.069 19.0922 27.069 19.024C27.069 15.9834 24.5911 13.5186 21.5345 13.5186C18.4779 13.5186 16 15.9834 16 19.024C16 22.0646 18.4779 24.5295 21.5345 24.5295C21.7595 24.5295 21.9635 24.6817 21.9802 24.9061C22.046 25.7938 21.7605 26.5958 21.5614 26.9673C21.5521 26.9847 21.5676 27.0051 21.5864 26.9989C23.4407 26.3815 27.0423 24.005 27.0689 19.2545Z" fill="#384B60"/>
<ellipse cx="18.9799" cy="18.2724" rx="0.425731" ry="0.638597" fill="#FCF0D9"/>
<ellipse cx="21.5346" cy="18.2724" rx="0.425731" ry="0.638597" fill="#FCF0D9"/>
</svg>
