<svg width="121" height="40" viewBox="0 0 121 40" fill="none" xmlns="http://www.w3.org/2000/svg">
<path d="M88.3789 26.8806C88.0886 26.8806 87.8604 26.8495 87.6945 26.7872C87.5286 26.7354 87.3989 26.6576 87.3056 26.5539C87.2226 26.4606 87.1708 26.3465 87.1501 26.2117C87.1293 26.0872 87.1189 25.9472 87.1189 25.7917V22.7583C87.1189 22.3643 87.2175 22.0428 87.4145 21.7939C87.6219 21.5346 87.9952 21.405 88.5345 21.405H97.5878C97.8782 21.405 98.1064 21.4361 98.2723 21.4983C98.4382 21.5502 98.5626 21.628 98.6456 21.7317C98.7389 21.825 98.796 21.9391 98.8167 22.0739C98.8375 22.1983 98.8478 22.3383 98.8478 22.4939V25.5272C98.8478 26.0458 98.713 26.3983 98.4434 26.585C98.1738 26.7821 97.8367 26.8806 97.4323 26.8806H88.3789ZM96.3278 24.7806V23.505H89.6389V24.7806H96.3278ZM89.9345 20.4561C88.7212 20.4561 87.8293 20.1813 87.2589 19.6317C86.6989 19.0821 86.4189 18.1902 86.4189 16.9561C86.4189 15.7117 86.6989 14.8146 87.2589 14.265C87.8189 13.705 88.7108 13.425 89.9345 13.425C91.1582 13.425 92.0501 13.705 92.6101 14.265C93.1701 14.8146 93.4501 15.7117 93.4501 16.9561C93.4501 17.6095 93.3775 18.1643 93.2323 18.6206C93.0975 19.0665 92.8849 19.4243 92.5945 19.6939C92.3145 19.9635 91.9515 20.1606 91.5056 20.285C91.0597 20.3991 90.536 20.4561 89.9345 20.4561ZM89.9345 18.4028C90.3493 18.4028 90.6138 18.2939 90.7278 18.0761C90.8523 17.848 90.9145 17.4746 90.9145 16.9561C90.9145 16.4376 90.8523 16.0643 90.7278 15.8361C90.6138 15.608 90.3493 15.4939 89.9345 15.4939C89.5197 15.4939 89.2501 15.608 89.1256 15.8361C89.0115 16.0643 88.9545 16.4376 88.9545 16.9561C88.9545 17.4746 89.0115 17.848 89.1256 18.0761C89.2501 18.2939 89.5197 18.4028 89.9345 18.4028ZM97.6034 20.7517C97.4375 20.7517 97.2767 20.7309 97.1212 20.6895C96.976 20.648 96.8412 20.5754 96.7167 20.4717C96.6026 20.368 96.5093 20.228 96.4367 20.0517C96.3745 19.8754 96.3434 19.6524 96.3434 19.3828V18.0606H95.3323C95.0419 18.0606 94.8086 18.0346 94.6323 17.9828C94.456 17.9206 94.316 17.8376 94.2123 17.7339C94.1189 17.6302 94.0567 17.5161 94.0256 17.3917C93.9945 17.2569 93.9789 17.1117 93.9789 16.9561C93.9789 16.8317 93.9945 16.7072 94.0256 16.5828C94.0567 16.448 94.1189 16.3287 94.2123 16.225C94.316 16.1213 94.456 16.0383 94.6323 15.9761C94.8086 15.9139 95.0419 15.8828 95.3323 15.8828H96.3434V14.7161C96.3434 14.1976 96.4678 13.845 96.7167 13.6583C96.976 13.4613 97.2715 13.3628 97.6034 13.3628C97.7693 13.3628 97.9249 13.3835 98.0701 13.425C98.2256 13.4665 98.3604 13.5391 98.4745 13.6428C98.5886 13.7465 98.6819 13.8865 98.7545 14.0628C98.8271 14.2391 98.8634 14.4569 98.8634 14.7161V19.3828C98.8634 19.6524 98.8271 19.8754 98.7545 20.0517C98.6819 20.228 98.5886 20.368 98.4745 20.4717C98.3604 20.5754 98.2256 20.648 98.0701 20.6895C97.9249 20.7309 97.7693 20.7517 97.6034 20.7517Z" fill="#384B60"/>
<path d="M72.9135 26.7095C72.7476 26.7095 72.5869 26.6887 72.4313 26.6472C72.2861 26.6058 72.1513 26.5332 72.0269 26.4295C71.9128 26.3258 71.8194 26.1858 71.7469 26.0095C71.6846 25.8332 71.6535 25.6102 71.6535 25.3406V22.5872H69.8335C69.5432 22.5872 69.3046 22.5561 69.118 22.4939C68.9313 22.4317 68.7861 22.3539 68.6824 22.2606C68.5787 22.1569 68.5061 22.0428 68.4646 21.9183C68.4335 21.7835 68.418 21.6539 68.418 21.5295C68.418 21.3739 68.4335 21.2339 68.4646 21.1095C68.5061 20.9746 68.5787 20.8606 68.6824 20.7672C68.7861 20.6635 68.9313 20.5858 69.118 20.5339C69.3046 20.4717 69.5432 20.4406 69.8335 20.4406H76.1024C76.3928 20.4406 76.6313 20.4717 76.818 20.5339C77.0046 20.5858 77.1498 20.6635 77.2535 20.7672C77.3572 20.8606 77.4246 20.9746 77.4557 21.1095C77.4972 21.2339 77.518 21.3739 77.518 21.5295C77.518 21.6539 77.4972 21.7835 77.4557 21.9183C77.4246 22.0428 77.3572 22.1569 77.2535 22.2606C77.1498 22.3539 77.0046 22.4317 76.818 22.4939C76.6313 22.5561 76.3928 22.5872 76.1024 22.5872H74.1735V25.3406C74.1735 25.6102 74.1372 25.8332 74.0646 26.0095C73.992 26.1858 73.8987 26.3258 73.7846 26.4295C73.6706 26.5332 73.5357 26.6058 73.3802 26.6472C73.235 26.6887 73.0794 26.7095 72.9135 26.7095ZM69.5224 19.4606C69.3461 19.4502 69.175 19.4035 69.0091 19.3206C68.8432 19.2272 68.7135 19.0717 68.6202 18.8539C68.4646 18.4909 68.4491 18.1746 68.5735 17.905C68.7083 17.6354 68.9572 17.4124 69.3202 17.2361C69.7661 17.0183 70.1291 16.8213 70.4091 16.645C70.6994 16.4687 70.9224 16.2924 71.078 16.1161C71.2439 15.9398 71.3528 15.7583 71.4046 15.5717C71.4669 15.3746 71.498 15.1517 71.498 14.9028V14.6383C71.498 14.3791 71.5343 14.1717 71.6069 14.0161C71.6795 13.8606 71.7728 13.7413 71.8869 13.6583C72.0113 13.565 72.1513 13.508 72.3069 13.4872C72.4624 13.4561 72.6232 13.4406 72.7891 13.4406C72.955 13.4406 73.1157 13.4561 73.2713 13.4872C73.4269 13.508 73.5617 13.565 73.6757 13.6583C73.8002 13.7413 73.8987 13.8606 73.9713 14.0161C74.0439 14.1717 74.0802 14.3791 74.0802 14.6383V14.8717C74.0802 15.0895 74.1113 15.2917 74.1735 15.4783C74.2357 15.6546 74.3498 15.8309 74.5157 16.0072C74.6817 16.1835 74.9046 16.3702 75.1846 16.5672C75.4646 16.7643 75.8172 16.9769 76.2424 17.205C76.6054 17.3917 76.8491 17.6146 76.9735 17.8739C77.1083 18.1332 77.098 18.4443 76.9424 18.8072C76.7557 19.1702 76.4654 19.3776 76.0713 19.4295C75.8224 19.4502 75.5787 19.4139 75.3402 19.3206C75.1328 19.2376 74.9202 19.1339 74.7024 19.0095C74.4846 18.8746 74.2669 18.7346 74.0491 18.5895C73.8313 18.4339 73.6239 18.2732 73.4269 18.1072C73.2402 17.9309 73.0691 17.7546 72.9135 17.5783C72.5402 18.0346 72.1409 18.3924 71.7157 18.6517C71.3009 18.9006 70.8757 19.1132 70.4402 19.2895C70.295 19.3413 70.1446 19.388 69.9891 19.4295C69.8439 19.4709 69.6883 19.4813 69.5224 19.4606ZM79.8669 26.7095C79.7009 26.7095 79.5402 26.6887 79.3846 26.6472C79.2395 26.6058 79.1046 26.5332 78.9802 26.4295C78.8661 26.3258 78.7728 26.1858 78.7002 26.0095C78.638 25.8332 78.6069 25.6102 78.6069 25.3406V14.7161C78.6069 14.1976 78.7313 13.845 78.9802 13.6583C79.2395 13.4613 79.535 13.3628 79.8669 13.3628C80.0328 13.3628 80.1883 13.3835 80.3335 13.425C80.4891 13.4665 80.6239 13.5391 80.738 13.6428C80.852 13.7465 80.9454 13.8865 81.018 14.0628C81.0906 14.2391 81.1269 14.4569 81.1269 14.7161V25.3406C81.1269 25.6102 81.0906 25.8332 81.018 26.0095C80.9454 26.1858 80.852 26.3258 80.738 26.4295C80.6239 26.5332 80.4891 26.6058 80.3335 26.6472C80.1883 26.6887 80.0328 26.7095 79.8669 26.7095Z" fill="#384B60"/>
<path d="M52.5948 26.8806C52.3044 26.8806 52.0762 26.8495 51.9103 26.7872C51.7444 26.7354 51.6148 26.6576 51.5214 26.5539C51.4385 26.4606 51.3866 26.3465 51.3659 26.2117C51.3451 26.0872 51.3348 25.9472 51.3348 25.7917V22.7583C51.3348 22.3643 51.4333 22.0428 51.6303 21.7939C51.8377 21.5346 52.2111 21.405 52.7503 21.405H61.8037C62.094 21.405 62.3222 21.4361 62.4881 21.4983C62.654 21.5502 62.7785 21.628 62.8614 21.7317C62.9548 21.825 63.0118 21.9391 63.0325 22.0739C63.0533 22.1983 63.0637 22.3383 63.0637 22.4939V25.5272C63.0637 26.0458 62.9288 26.3983 62.6592 26.585C62.3896 26.7821 62.0525 26.8806 61.6481 26.8806H52.5948ZM60.5437 24.7806V23.505H53.8548V24.7806H60.5437ZM54.1503 20.4561C52.937 20.4561 52.0451 20.1813 51.4748 19.6317C50.9148 19.0821 50.6348 18.1902 50.6348 16.9561C50.6348 15.7117 50.9148 14.8146 51.4748 14.265C52.0348 13.705 52.9266 13.425 54.1503 13.425C55.374 13.425 56.2659 13.705 56.8259 14.265C57.3859 14.8146 57.6659 15.7117 57.6659 16.9561C57.6659 17.6095 57.5933 18.1643 57.4481 18.6206C57.3133 19.0665 57.1007 19.4243 56.8103 19.6939C56.5303 19.9635 56.1674 20.1606 55.7214 20.285C55.2755 20.3991 54.7518 20.4561 54.1503 20.4561ZM54.1503 18.4028C54.5651 18.4028 54.8296 18.2939 54.9437 18.0761C55.0681 17.848 55.1303 17.4746 55.1303 16.9561C55.1303 16.4376 55.0681 16.0643 54.9437 15.8361C54.8296 15.608 54.5651 15.4939 54.1503 15.4939C53.7355 15.4939 53.4659 15.608 53.3414 15.8361C53.2274 16.0643 53.1703 16.4376 53.1703 16.9561C53.1703 17.4746 53.2274 17.848 53.3414 18.0761C53.4659 18.2939 53.7355 18.4028 54.1503 18.4028ZM61.8192 20.7517C61.6533 20.7517 61.4925 20.7309 61.337 20.6895C61.1918 20.648 61.057 20.5754 60.9325 20.4717C60.8185 20.368 60.7251 20.228 60.6525 20.0517C60.5903 19.8754 60.5592 19.6524 60.5592 19.3828V18.0606H59.5481C59.2577 18.0606 59.0244 18.0346 58.8481 17.9828C58.6718 17.9206 58.5318 17.8376 58.4281 17.7339C58.3348 17.6302 58.2725 17.5161 58.2414 17.3917C58.2103 17.2569 58.1948 17.1117 58.1948 16.9561C58.1948 16.8317 58.2103 16.7072 58.2414 16.5828C58.2725 16.448 58.3348 16.3287 58.4281 16.225C58.5318 16.1213 58.6718 16.0383 58.8481 15.9761C59.0244 15.9139 59.2577 15.8828 59.5481 15.8828H60.5592V14.7161C60.5592 14.1976 60.6837 13.845 60.9325 13.6583C61.1918 13.4613 61.4874 13.3628 61.8192 13.3628C61.9851 13.3628 62.1407 13.3835 62.2859 13.425C62.4414 13.4665 62.5762 13.5391 62.6903 13.6428C62.8044 13.7465 62.8977 13.8865 62.9703 14.0628C63.0429 14.2391 63.0792 14.4569 63.0792 14.7161V19.3828C63.0792 19.6524 63.0429 19.8754 62.9703 20.0517C62.8977 20.228 62.8044 20.368 62.6903 20.4717C62.5762 20.5754 62.4414 20.648 62.2859 20.6895C62.1407 20.7309 61.9851 20.7517 61.8192 20.7517Z" fill="#384B60"/>
<path d="M37.1298 26.7097C36.9639 26.7097 36.8032 26.689 36.6476 26.6475C36.5024 26.606 36.3676 26.5334 36.2432 26.4297C36.1291 26.326 36.0358 26.186 35.9632 26.0097C35.9009 25.8334 35.8698 25.6104 35.8698 25.3408V22.5875H34.0498C33.7595 22.5875 33.5209 22.5564 33.3343 22.4941C33.1476 22.4319 33.0024 22.3541 32.8987 22.2608C32.795 22.1571 32.7224 22.043 32.6809 21.9186C32.6498 21.7838 32.6343 21.6541 32.6343 21.5297C32.6343 21.3741 32.6498 21.2341 32.6809 21.1097C32.7224 20.9749 32.795 20.8608 32.8987 20.7675C33.0024 20.6638 33.1476 20.586 33.3343 20.5341C33.5209 20.4719 33.7595 20.4408 34.0498 20.4408H40.3187C40.6091 20.4408 40.8476 20.4719 41.0343 20.5341C41.2209 20.586 41.3661 20.6638 41.4698 20.7675C41.5735 20.8608 41.6409 20.9749 41.6721 21.1097C41.7135 21.2341 41.7343 21.3741 41.7343 21.5297C41.7343 21.6541 41.7135 21.7838 41.6721 21.9186C41.6409 22.043 41.5735 22.1571 41.4698 22.2608C41.3661 22.3541 41.2209 22.4319 41.0343 22.4941C40.8476 22.5564 40.6091 22.5875 40.3187 22.5875H38.3898V25.3408C38.3898 25.6104 38.3535 25.8334 38.2809 26.0097C38.2084 26.186 38.115 26.326 38.0009 26.4297C37.8869 26.5334 37.7521 26.606 37.5965 26.6475C37.4513 26.689 37.2958 26.7097 37.1298 26.7097ZM33.7387 19.4608C33.5624 19.4504 33.3913 19.4038 33.2254 19.3208C33.0595 19.2275 32.9298 19.0719 32.8365 18.8541C32.6809 18.4912 32.6654 18.1749 32.7898 17.9053C32.9246 17.6356 33.1735 17.4127 33.5365 17.2364C33.9824 17.0186 34.3454 16.8216 34.6254 16.6453C34.9158 16.469 35.1387 16.2927 35.2943 16.1164C35.4602 15.9401 35.5691 15.7586 35.6209 15.5719C35.6832 15.3749 35.7143 15.1519 35.7143 14.903V14.6386C35.7143 14.3793 35.7506 14.1719 35.8232 14.0164C35.8958 13.8608 35.9891 13.7416 36.1032 13.6586C36.2276 13.5653 36.3676 13.5082 36.5232 13.4875C36.6787 13.4564 36.8395 13.4408 37.0054 13.4408C37.1713 13.4408 37.3321 13.4564 37.4876 13.4875C37.6432 13.5082 37.778 13.5653 37.8921 13.6586C38.0165 13.7416 38.115 13.8608 38.1876 14.0164C38.2602 14.1719 38.2965 14.3793 38.2965 14.6386V14.8719C38.2965 15.0897 38.3276 15.2919 38.3898 15.4786C38.4521 15.6549 38.5661 15.8312 38.7321 16.0075C38.898 16.1838 39.1209 16.3704 39.4009 16.5675C39.6809 16.7645 40.0335 16.9771 40.4587 17.2053C40.8217 17.3919 41.0654 17.6149 41.1898 17.8741C41.3246 18.1334 41.3143 18.4445 41.1587 18.8075C40.9721 19.1704 40.6817 19.3779 40.2876 19.4297C40.0387 19.4504 39.795 19.4141 39.5565 19.3208C39.3491 19.2379 39.1365 19.1341 38.9187 19.0097C38.7009 18.8749 38.4832 18.7349 38.2654 18.5897C38.0476 18.4341 37.8402 18.2734 37.6432 18.1075C37.4565 17.9312 37.2854 17.7549 37.1298 17.5786C36.7565 18.0349 36.3572 18.3927 35.9321 18.6519C35.5172 18.9008 35.0921 19.1134 34.6565 19.2897C34.5113 19.3416 34.3609 19.3882 34.2054 19.4297C34.0602 19.4712 33.9046 19.4816 33.7387 19.4608ZM44.0832 26.7097C43.9172 26.7097 43.7565 26.689 43.6009 26.6475C43.4558 26.606 43.3209 26.5334 43.1965 26.4297C43.0824 26.326 42.9891 26.186 42.9165 26.0097C42.8543 25.8334 42.8232 25.6104 42.8232 25.3408V14.7164C42.8232 14.1979 42.9476 13.8453 43.1965 13.6586C43.4558 13.4616 43.7513 13.363 44.0832 13.363C44.2491 13.363 44.4046 13.3838 44.5498 13.4253C44.7054 13.4667 44.8402 13.5393 44.9543 13.643C45.0684 13.7467 45.1617 13.8867 45.2343 14.063C45.3069 14.2393 45.3432 14.4571 45.3432 14.7164V25.3408C45.3432 25.6104 45.3069 25.8334 45.2343 26.0097C45.1617 26.186 45.0684 26.326 44.9543 26.4297C44.8402 26.5334 44.7054 26.606 44.5498 26.6475C44.4046 26.689 44.2491 26.7097 44.0832 26.7097Z" fill="#384B60"/>
<path fill-rule="evenodd" clip-rule="evenodd" d="M27.0689 19.2544C27.0689 19.2455 27.065 19.2366 27.0653 19.2277C27.0678 19.1601 27.069 19.0922 27.069 19.024C27.069 15.9834 24.5911 13.5185 21.5345 13.5185C18.4779 13.5185 16 15.9834 16 19.024C16 22.0646 18.4779 24.5294 21.5345 24.5294C21.7595 24.5294 21.9635 24.6816 21.9802 24.906C22.046 25.7938 21.7605 26.5957 21.5614 26.9673C21.5521 26.9847 21.5676 27.0051 21.5864 26.9988C23.4407 26.3814 27.0423 24.0049 27.0689 19.2544Z" fill="#384B60"/>
<ellipse cx="18.9799" cy="18.2726" rx="0.425731" ry="0.638597" fill="#FCF0D9"/>
<ellipse cx="21.5346" cy="18.2728" rx="0.425731" ry="0.638597" fill="#FCF0D9"/>
</svg>
